<?xml version="1.0" encoding="UTF-8"?>
<svg width="150px" height="150px" viewBox="0 0 150 150" version="1.1" xmlns="http://www.w3.org/2000/svg" xmlns:xlink="http://www.w3.org/1999/xlink">
    <!-- Generator: Sketch 64 (93537) - https://sketch.com -->
    <title>Group</title>
    <desc>Created with Sketch.</desc>
    <g id="Page-1" stroke="none" stroke-width="1" fill="none" fill-rule="evenodd">
        <g id="Group" fill="#000000" fill-rule="nonzero">
            <path d="M75,0 C33.5685484,0 0,33.5685484 0,75 C0,116.431452 33.5685484,150 75,150 C116.431452,150 150,116.431452 150,75 C150,33.5685484 116.431452,0 75,0 Z M140.322581,75 C140.322581,110.897177 111.260081,140.322581 75,140.322581 C39.1028226,140.322581 9.67741935,111.260081 9.67741935,75 C9.67741935,39.1028226 38.7399194,9.67741935 75,9.67741935 C110.897177,9.67741935 140.322581,38.7399194 140.322581,75 Z M95.2923387,101.703629 L70.7358871,83.8608871 C69.7983871,83.1653226 69.2540323,82.0766129 69.2540323,80.9274194 L69.2540323,32.6612903 C69.2540323,30.6653226 70.8870968,29.0322581 72.8830645,29.0322581 L77.1169355,29.0322581 C79.1129032,29.0322581 80.7459677,30.6653226 80.7459677,32.6612903 L80.7459677,76.9052419 L102.066532,92.4193548 C103.699597,93.5987903 104.032258,95.8669355 102.852823,97.5 L100.372984,100.917339 C99.1935484,102.520161 96.9254032,102.883065 95.2923387,101.703629 L95.2923387,101.703629 Z" id="Shape"></path>
        </g>
    </g>
</svg>