<?xml version="1.0" encoding="UTF-8"?>
<svg width="270px" height="53px" viewBox="0 0 270 53" version="1.1" xmlns="http://www.w3.org/2000/svg" xmlns:xlink="http://www.w3.org/1999/xlink">
    <!-- Generator: Sketch 64 (93537) - https://sketch.com -->
    <title>logo-dark</title>
    <desc>Created with Sketch.</desc>
    <g id="Page-1" stroke="none" stroke-width="1" fill="none" fill-rule="evenodd">
        <g id="logo-dark" transform="translate(0.000000, -5.000000)" fill-rule="nonzero">
            <path d="M0,45.9807433 L3.25,40.9807433 C6.15,43.0807433 9.2,44.1807433 11.701,44.1807433 C13.901,44.1807433 14.901,43.3807433 14.901,42.1807433 L14.901,42.0807433 C14.901,40.4307433 12.3,39.8807433 9.351,38.9807433 C5.6,37.8797433 1.35,36.1297433 1.35,30.9297433 L1.35,30.8297433 C1.35,25.3797433 5.75,22.3297433 11.15,22.3297433 C14.551,22.3297433 18.251,23.4797433 21.151,25.4297433 L18.251,30.6797433 C15.601,29.1297433 12.951,28.1797433 11,28.1797433 C9.15,28.1797433 8.2,28.9797433 8.2,30.0297433 L8.2,30.1297433 C8.2,31.6297433 10.75,32.3297433 13.65,33.3297433 C17.401,34.5807433 21.751,36.3797433 21.751,41.2807433 L21.751,41.3807433 C21.751,47.3307433 17.301,50.0307433 11.5,50.0307433 C7.75,50.0307433 3.55,48.7807433 0,45.9807433" id="Fill-1" fill="#233642"></path>
            <path d="M24.7002,13.0285433 L32.3002,13.0285433 L32.3002,26.5295433 C34.0512,24.2795433 36.3012,22.2295433 40.1512,22.2295433 C45.9012,22.2295433 49.2512,26.0295433 49.2512,32.1795433 L49.2512,49.5305433 L41.6512,49.5305433 L41.6512,34.5805433 C41.6512,30.9795433 39.9512,29.1295433 37.0512,29.1295433 C34.1502,29.1295433 32.3002,30.9795433 32.3002,34.5805433 L32.3002,49.5305433 L24.7002,49.5305433 L24.7002,13.0285433 Z" id="Fill-3" fill="#233642"></path>
            <path d="M73.5508,36.2800433 L73.5508,36.1800433 C73.5508,32.2300433 70.7008,28.7800433 66.4998,28.7800433 C62.1498,28.7800433 59.5498,32.1300433 59.5498,36.0800433 L59.5498,36.1800433 C59.5498,40.1310433 62.3998,43.5810433 66.5998,43.5810433 C70.9508,43.5810433 73.5508,40.2300433 73.5508,36.2800433 M52.0498,36.2800433 L52.0498,36.1800433 C52.0498,28.4800433 58.2498,22.2290433 66.5998,22.2290433 C74.9008,22.2290433 81.0508,28.3800433 81.0508,36.0800433 L81.0508,36.1800433 C81.0508,43.8810433 74.8508,50.1310433 66.4998,50.1310433 C58.1998,50.1310433 52.0498,43.9810433 52.0498,36.2800433" id="Fill-5" fill="#233642"></path>
            <path d="M104.6001,36.1804433 L104.6001,36.0804433 C104.6001,31.6304433 101.6001,28.6804433 98.0491,28.6804433 C94.4991,28.6804433 91.5491,31.6304433 91.5491,36.0804433 L91.5491,36.1804433 C91.5491,40.6304433 94.4991,43.5804433 98.0491,43.5804433 C101.6001,43.5804433 104.6001,40.6804433 104.6001,36.1804433 L104.6001,36.1804433 Z M84.0491,22.7294433 L91.6491,22.7294433 L91.6491,26.5794433 C93.4991,24.0794433 96.0491,22.2294433 99.9991,22.2294433 C106.2501,22.2294433 112.2001,27.1294433 112.2001,36.0804433 L112.2001,36.1804433 C112.2001,45.1304433 106.3501,50.0314433 99.9991,50.0314433 C95.9491,50.0314433 93.4491,48.1804433 91.6491,46.0314433 L91.6491,57.5314433 L84.0491,57.5314433 L84.0491,22.7294433 Z" id="Fill-7" fill="#233642"></path>
            <path d="M115.2983,22.7292433 L122.8983,22.7292433 L122.8983,28.1292433 C124.4483,24.4292433 126.9483,22.0292433 131.4493,22.2292433 L131.4493,30.1802433 L131.0493,30.1802433 C125.9993,30.1802433 122.8983,33.2302433 122.8983,39.6302433 L122.8983,49.5312433 L115.2983,49.5312433 L115.2983,22.7292433 Z" id="Fill-9" fill="#233642"></path>
            <path d="M153.1494,36.2800433 L153.1494,36.1800433 C153.1494,32.2300433 150.2994,28.7800433 146.0984,28.7800433 C141.7484,28.7800433 139.1484,32.1300433 139.1484,36.0800433 L139.1484,36.1800433 C139.1484,40.1310433 141.9984,43.5810433 146.1984,43.5810433 C150.5494,43.5810433 153.1494,40.2300433 153.1494,36.2800433 M131.6484,36.2800433 L131.6484,36.1800433 C131.6484,28.4800433 137.8484,22.2290433 146.1984,22.2290433 C154.4994,22.2290433 160.6494,28.3800433 160.6494,36.0800433 L160.6494,36.1800433 C160.6494,43.8810433 154.4494,50.1310433 146.0984,50.1310433 C137.7984,50.1310433 131.6484,43.9810433 131.6484,36.2800433" id="Fill-11" fill="#233642"></path>
            <path d="M162.3471,36.2800433 L162.3471,36.1800433 C162.3471,28.5300433 168.1981,22.2290433 176.3981,22.2290433 C181.4491,22.2290433 184.5991,23.9290433 187.0991,26.7300433 L182.4491,31.7300433 C180.7481,29.9300433 179.0481,28.7800433 176.3481,28.7800433 C172.5481,28.7800433 169.8481,32.1300433 169.8481,36.0800433 L169.8481,36.1800433 C169.8481,40.2800433 172.4981,43.5810433 176.6481,43.5810433 C179.1991,43.5810433 180.9491,42.4810433 182.7981,40.7300433 L187.2481,45.2310433 C184.6491,48.0810433 181.6491,50.1310433 176.2981,50.1310433 C168.2471,50.1310433 162.3471,43.9300433 162.3471,36.2800433" id="Fill-13" fill="#233642"></path>
            <polygon id="Fill-15" fill="#233642" points="189.6977 13.0285433 197.2987 13.0285433 197.2987 32.4795433 206.1987 22.7295433 215.2997 22.7295433 205.0977 33.2795433 215.6487 49.5305433 206.9487 49.5305433 199.9477 38.5805433 197.2987 41.3805433 197.2987 49.5305433 189.6977 49.5305433"></polygon>
            <path d="M233.1479,34.0300433 C232.6979,30.6300433 230.6979,28.3300433 227.4979,28.3300433 C224.3479,28.3300433 222.2969,30.5800433 221.6979,34.0300433 L233.1479,34.0300433 Z M214.2479,36.2800433 L214.2479,36.1800433 C214.2479,28.5300433 219.6979,22.2290433 227.4979,22.2290433 C236.4489,22.2290433 240.5479,29.1800433 240.5479,36.7800433 C240.5479,37.3800433 240.4989,38.0800433 240.4489,38.7800433 L221.7969,38.7800433 C222.5469,42.2310433 224.9479,44.0300433 228.3479,44.0300433 C230.8979,44.0300433 232.7489,43.2310433 234.8479,41.2800433 L239.1989,45.1310433 C236.6989,48.2310433 233.0979,50.1310433 228.2479,50.1310433 C220.1979,50.1310433 214.2479,44.4810433 214.2479,36.2800433 L214.2479,36.2800433 Z" id="Fill-17" fill="#233642"></path>
            <path d="M244.9468,41.9304433 L244.9468,29.2294433 L241.7468,29.2294433 L241.7468,22.7294433 L244.9468,22.7294433 L244.9468,15.8794433 L252.5478,15.8794433 L252.5478,22.7294433 L258.8468,22.7294433 L258.8468,29.2294433 L252.5478,29.2294433 L252.5478,40.6804433 C252.5478,42.4304433 253.2978,43.2804433 254.9978,43.2804433 C256.3968,43.2804433 257.6468,42.9304433 258.7478,42.3304433 L258.7478,48.4304433 C257.1468,49.3814433 255.2978,49.9814433 252.7478,49.9814433 C248.0968,49.9814433 244.9468,48.1314433 244.9468,41.9304433" id="Fill-19" fill="#233642"></path>
            <polygon id="Path-2" fill="#EB902D" transform="translate(263.929681, 11.310124) rotate(45.000000) translate(-263.929681, -11.310124) " points="264.890718 3.96103834 271.024699 10.0950188 271.024699 19.6202479 263.92968 12.5252295 256.834662 19.6202479 256.834662 10.0950188 263.92968 3.00000043"></polygon>
        </g>
    </g>
</svg>