<?xml version="1.0" encoding="UTF-8"?>
<svg width="100px" height="10px" viewBox="0 0 100 10" version="1.1" xmlns="http://www.w3.org/2000/svg" xmlns:xlink="http://www.w3.org/1999/xlink">
    <!-- Generator: Sketch 63.1 (92452) - https://sketch.com -->
    <title>partner-5</title>
    <desc>Created with Sketch.</desc>
    <g id="Page-1" stroke="none" stroke-width="1" fill="none" fill-rule="evenodd">
        <g id="partner-5" fill="#FFFFFF" fill-rule="nonzero">
            <path d="M45.6137568,2.66431511 L43.8741916,7.11346268 L42.9429748,7.11346268 L41.1969428,2.66431511 L42.3027632,2.66431511 L43.4085832,5.6584362 L44.5144032,2.66431511 L45.6137568,2.66431511 Z M46.118166,7.11346268 L46.118166,2.66431511 L48.92475,2.66431511 L48.92475,3.54379777 L47.1981188,3.54379777 L47.1981188,4.4297472 L48.6725456,4.4297472 L48.6725456,5.27689596 L47.1981188,5.27689596 L47.1981188,6.23398 L48.9764844,6.23398 L48.9764844,7.11346268 L46.118166,7.11346268 Z M50.8647852,3.51793062 L50.8647852,4.69488536 L51.3562612,4.69488536 C51.7248676,4.69488536 51.990006,4.44268076 51.990006,4.106408 C51.990006,3.75720165 51.7248676,3.51793062 51.3562612,3.51793062 L50.8647852,3.51793062 Z M49.8106996,7.11346268 L49.8106996,2.66431511 L51.4985304,2.66431511 C52.4168136,2.66431511 53.0699588,3.25925926 53.0699588,4.106408 C53.0699588,4.6819518 52.76602,5.14756024 52.255144,5.39329808 L53.244562,7.11346268 L52.0934744,7.11346268 L51.2269252,5.54203408 L50.8647852,5.54203408 L50.8647852,7.11346268 L49.8106996,7.11346268 Z M53.9494416,7.11346268 L53.9494416,2.66431511 L55.0293944,2.66431511 L55.0293944,7.11346268 L53.9494416,7.11346268 Z M56.0899472,7.11346268 L56.0899472,2.66431511 L58.8965316,2.66431511 L58.8965316,3.54379777 L57.1699,3.54379777 L57.1699,4.5978836 L58.6443268,4.5978836 L58.6443268,5.47736624 L57.1699,5.47736624 L57.1699,7.11346268 L56.0899472,7.11346268 Z M59.627278,7.11346268 L59.627278,2.66431511 L60.7072312,2.66431511 L60.7072312,7.11346268 L59.627278,7.11346268 Z M61.7677836,7.11346268 L61.7677836,2.66431511 L64.574368,2.66431511 L64.574368,3.54379777 L62.8477368,3.54379777 L62.8477368,4.4297472 L64.3221632,4.4297472 L64.3221632,5.27689596 L62.8477368,5.27689596 L62.8477368,6.23398 L64.6261024,6.23398 L64.6261024,7.11346268 L61.7677836,7.11346268 Z M65.4603176,7.11346268 L65.4603176,2.66431511 L67.2257496,2.66431511 C68.5126396,2.66431511 69.424456,3.58906526 69.424456,4.88888888 C69.424456,6.18871252 68.5126396,7.11346268 67.2257496,7.11346268 L65.4603176,7.11346268 Z M66.5402704,3.54379777 L66.5402704,6.23398 L67.1740152,6.23398 C67.8530276,6.23398 68.3251028,5.68430336 68.3251028,4.88888888 C68.3251028,4.09347444 67.8530276,3.54379777 67.1740152,3.54379777 L66.5402704,3.54379777 Z M71.8236332,7.11346268 L71.8236332,2.66431511 L73.5373312,2.66431511 C74.468548,2.66431511 75.12816,3.27219282 75.12816,4.13227512 C75.12816,4.99235744 74.468548,5.5873016 73.5373312,5.5873016 L72.8777188,5.5873016 L72.8777188,7.11346268 L71.8236332,7.11346268 Z M72.8777188,3.51793062 L72.8777188,4.74015284 L73.3950616,4.74015284 C73.776602,4.74015284 74.0546736,4.48794828 74.0546736,4.13227512 C74.0546736,3.76366843 73.776602,3.51793062 73.3950616,3.51793062 L72.8777188,3.51793062 Z M74.8953556,7.11346268 L76.6413876,2.66431511 L77.5726044,2.66431511 L79.3121692,7.11346268 L78.2645504,7.11346268 L77.9218108,6.19517932 L76.2857144,6.19517932 L75.9494416,7.11346268 L74.8953556,7.11346268 Z M77.106996,3.96413874 L76.5831864,5.39329808 L77.6243388,5.39329808 L77.106996,3.96413874 Z M80.8706644,3.51793062 L80.8706644,4.69488536 L81.36214,4.69488536 C81.7307468,4.69488536 81.9958848,4.44268076 81.9958848,4.106408 C81.9958848,3.75720165 81.7307468,3.51793062 81.36214,3.51793062 L80.8706644,3.51793062 Z M79.8165784,7.11346268 L79.8165784,2.66431511 L81.5044092,2.66431511 C82.4226924,2.66431511 83.0758376,3.25925926 83.0758376,4.106408 C83.0758376,4.6819518 82.7718988,5.14756024 82.2610228,5.39329808 L83.2504408,7.11346268 L82.0993532,7.11346268 L81.2328044,5.54203408 L80.8706644,5.54203408 L80.8706644,7.11346268 L79.8165784,7.11346268 Z M84.7572016,7.11346268 L84.7572016,3.54379777 L83.4703116,3.54379777 L83.4703116,2.66431511 L87.1111112,2.66431511 L87.1111112,3.54379777 L85.830688,3.54379777 L85.830688,7.11346268 L84.7572016,7.11346268 Z M87.7965904,7.11346268 L87.7965904,2.66431511 L88.7278072,2.66431511 L90.7325104,5.40623164 L90.7325104,2.66431511 L91.7348616,2.66431511 L91.7348616,7.11346268 L90.8036448,7.11346268 L88.8054084,4.37154616 L88.8054084,7.11346268 L87.7965904,7.11346268 Z M92.7954144,7.11346268 L92.7954144,2.66431511 L95.6019988,2.66431511 L95.6019988,3.54379777 L93.8753676,3.54379777 L93.8753676,4.4297472 L95.3497944,4.4297472 L95.3497944,5.27689596 L93.8753676,5.27689596 L93.8753676,6.23398 L95.6537332,6.23398 L95.6537332,7.11346268 L92.7954144,7.11346268 Z M97.542034,3.51793062 L97.542034,4.69488536 L98.0335096,4.69488536 C98.4021164,4.69488536 98.6672548,4.44268076 98.6672548,4.106408 C98.6672548,3.75720165 98.4021164,3.51793062 98.0335096,3.51793062 L97.542034,3.51793062 Z M96.4879484,7.11346268 L96.4879484,2.66431511 L98.1757788,2.66431511 C99.0940624,2.66431511 99.7472076,3.25925926 99.7472076,4.106408 C99.7472076,4.6819518 99.4432688,5.14756024 98.9323928,5.39329808 L99.9218108,7.11346268 L98.7707232,7.11346268 L97.904174,5.54203408 L97.542034,5.54203408 L97.542034,7.11346268 L96.4879484,7.11346268 Z M27.1134626,2.1202766 L36.5196943,0.058788948 L36.5196943,7.4059682 L27.1134626,9.46502056 L27.1134626,2.1202766 Z M30.6661279,6.38099448 C30.8701942,6.5746688 31.19632,6.57363244 31.399079,6.37866536 L34.0150112,3.86564727 C34.2191781,3.66721505 34.2191781,3.34549277 34.0150112,3.1470605 C33.8108443,2.94862828 33.4798244,2.94862828 33.2756575,3.1470605 L31.0337812,5.29275172 L30.3574995,4.67551964 C30.1533326,4.47708736 29.8223126,4.47708736 29.6181457,4.67551964 C29.4139788,4.87395184 29.4139788,5.19567412 29.6181457,5.3941064 L30.6661279,6.38099448 Z M22.3896695,5.48075672 L19.3914549,5.48075672 C19.4596902,6.21547968 19.9857218,6.43174892 20.5824698,6.43174892 C21.1907972,6.43174892 21.6696844,6.30097168 22.0873668,6.08512564 L22.0873668,7.34803652 C21.6709251,7.58377424 21.1217349,7.75433492 20.3893435,7.75433492 C18.89768,7.75433492 17.8522336,6.79826396 17.8522336,4.90770664 C17.8522336,3.31129241 18.738878,2.04330276 20.1962172,2.04330276 C21.6510748,2.04330276 22.4103469,3.3108692 22.4103469,4.9161712 C22.4103469,5.06768664 22.3966998,5.39611124 22.3896695,5.48075672 Z M20.186292,3.32144992 C19.8033476,3.32144992 19.3778078,3.61728595 19.3778078,4.32365268 L20.9612787,4.32365268 C20.9612787,3.61813239 20.5626196,3.32144992 20.186292,3.32144992 Z M15.4230595,7.75433492 C14.8871028,7.75433492 14.5595738,7.52282952 14.3395668,7.3577708 L14.3362584,9.13151728 L12.8048945,9.46502056 L12.8040674,2.14783998 L14.1530572,2.14783998 L14.2324581,2.53509318 C14.4446077,2.3323672 14.832101,2.04330276 15.4325711,2.04330276 C16.5082064,2.04330276 17.5213962,3.03492487 17.5213962,4.85988196 C17.5213962,6.85201388 16.5189586,7.75433492 15.4230595,7.75433492 Z M15.0665821,3.43191228 C14.7146538,3.43191228 14.4946469,3.56353604 14.3350178,3.74256126 L14.3441158,6.07200552 C14.4925792,6.23664104 14.70721,6.36953452 15.0665821,6.36953452 C15.6327277,6.36953452 16.0123637,5.73850228 16.0123637,4.8945866 C16.0123637,4.07437168 15.6269381,3.43191228 15.0665821,3.43191228 L15.0665821,3.43191228 Z M10.6408039,2.14783998 L12.178371,2.14783998 L12.178371,7.64217968 L10.6408039,7.64217968 L10.6408039,2.14783998 Z M10.6408039,0.393561904 L12.178371,0.058788948 L12.178371,1.33566637 L10.6408039,1.6700161 L10.6408039,0.393561904 Z M9.05237048,3.91735426 L9.05237048,7.64217968 L7.52142012,7.64217968 L7.52142012,2.14783998 L8.84559704,2.14783998 L8.94195352,2.61127414 C9.30008508,1.93664944 10.0163482,2.07335197 10.2202268,2.1482632 L10.2202268,3.58892969 C10.0254462,3.52459912 9.414224,3.43064262 9.05237048,3.91735426 Z M5.81967484,5.71437832 C5.81967484,6.63828396 6.7861338,6.35091248 6.98256856,6.27049924 L6.98256856,7.54653024 C6.77827644,7.66122488 6.40815204,7.75433492 5.9073468,7.75433492 C4.99837084,7.75433492 4.31643208,7.06912956 4.31643208,6.14099164 L4.32304884,1.11177902 L5.8184342,0.786740272 L5.81967484,2.14783998 L6.98298212,2.14783998 L6.98298212,3.48439248 L5.81967484,3.48439248 L5.81967484,5.71437832 Z M3.96119536,5.98185808 C3.96119536,7.11018264 3.08364897,7.75433492 1.80992475,7.75433492 C1.2818254,7.75433492 0.704514052,7.64937452 0.135060024,7.3984006 L0.135060024,5.90186808 C0.649098764,6.18796992 1.30415696,6.40254628 1.8115789,6.40254628 C2.1531686,6.40254628 2.39922898,6.30858972 2.39922898,6.01910212 C2.39922898,5.27083588 0.070546736,5.5527054 0.070546736,3.81704932 C0.070546736,2.70734679 0.898881068,2.04330276 2.14117572,2.04330276 C2.6485977,2.04330276 3.15601969,2.12329277 3.66344168,2.33025103 L3.66344168,3.8064686 C3.19737437,3.54914633 2.60600241,3.4031328 2.1399351,3.4031328 C1.81902275,3.4031328 1.61969318,3.4979358 1.61969318,3.74298448 C1.61969318,4.44808156 3.96119536,4.11288536 3.96119536,5.98185808 L3.96119536,5.98185808 Z" id="Shape"></path>
        </g>
    </g>
</svg>