<?xml version="1.0" encoding="UTF-8"?>
<svg width="2896px" height="512px" viewBox="0 0 2896 512" version="1.1" xmlns="http://www.w3.org/2000/svg" xmlns:xlink="http://www.w3.org/1999/xlink">
    <!-- Generator: Sketch 64 (93537) - https://sketch.com -->
    <title>Group 2</title>
    <desc>Created with Sketch.</desc>
    <g id="Page-1" stroke="none" stroke-width="1" fill="none" fill-rule="evenodd">
        <g id="Group-2" transform="translate(0.000000, -1.000000)" fill="#000000" fill-rule="nonzero">
            <g id="Group">
                <path d="M239.3,18.8 L174,151.2 L27.9,172.5 C1.7,176.3 -8.8,208.6 10.2,227.1 L115.9,330.1 L90.9,475.6 C86.4,501.9 114.1,521.6 137.3,509.3 L268,440.6 L398.7,509.3 C421.9,521.5 449.6,501.9 445.1,475.6 L420.1,330.1 L525.8,227.1 C544.8,208.6 534.3,176.3 508.1,172.5 L362,151.2 L296.7,18.8 C285,-4.8 251.1,-5.1 239.3,18.8 Z" id="Path"></path>
            </g>
            <g id="Group" transform="translate(590.000000, 0.000000)">
                <path d="M239.3,18.8 L174,151.2 L27.9,172.5 C1.7,176.3 -8.8,208.6 10.2,227.1 L115.9,330.1 L90.9,475.6 C86.4,501.9 114.1,521.6 137.3,509.3 L268,440.6 L398.7,509.3 C421.9,521.5 449.6,501.9 445.1,475.6 L420.1,330.1 L525.8,227.1 C544.8,208.6 534.3,176.3 508.1,172.5 L362,151.2 L296.7,18.8 C285,-4.8 251.1,-5.1 239.3,18.8 Z" id="Path"></path>
            </g>
            <g id="Group" transform="translate(1180.000000, 0.000000)">
                <path d="M239.3,18.8 L174,151.2 L27.9,172.5 C1.7,176.3 -8.8,208.6 10.2,227.1 L115.9,330.1 L90.9,475.6 C86.4,501.9 114.1,521.6 137.3,509.3 L268,440.6 L398.7,509.3 C421.9,521.5 449.6,501.9 445.1,475.6 L420.1,330.1 L525.8,227.1 C544.8,208.6 534.3,176.3 508.1,172.5 L362,151.2 L296.7,18.8 C285,-4.8 251.1,-5.1 239.3,18.8 Z" id="Path"></path>
            </g>
            <g id="Group" transform="translate(1770.000000, 0.000000)">
                <path d="M239.3,18.8 L174,151.2 L27.9,172.5 C1.7,176.3 -8.8,208.6 10.2,227.1 L115.9,330.1 L90.9,475.6 C86.4,501.9 114.1,521.6 137.3,509.3 L268,440.6 L398.7,509.3 C421.9,521.5 449.6,501.9 445.1,475.6 L420.1,330.1 L525.8,227.1 C544.8,208.6 534.3,176.3 508.1,172.5 L362,151.2 L296.7,18.8 C285,-4.8 251.1,-5.1 239.3,18.8 Z" id="Path"></path>
            </g>
            <g id="Group" transform="translate(2360.000000, 0.000000)">
                <path d="M239.3,18.8 L174,151.2 L27.9,172.5 C1.7,176.3 -8.8,208.6 10.2,227.1 L115.9,330.1 L90.9,475.6 C86.4,501.9 114.1,521.6 137.3,509.3 L268,440.6 L398.7,509.3 C421.9,521.5 449.6,501.9 445.1,475.6 L420.1,330.1 L525.8,227.1 C544.8,208.6 534.3,176.3 508.1,172.5 L362,151.2 L296.7,18.8 C285,-4.8 251.1,-5.1 239.3,18.8 Z" id="Path"></path>
            </g>
        </g>
    </g>
</svg>