<?xml version="1.0" encoding="UTF-8"?>
<svg width="945px" height="90px" viewBox="0 0 945 90" version="1.1" xmlns="http://www.w3.org/2000/svg" xmlns:xlink="http://www.w3.org/1999/xlink">
    <!-- Generator: Sketch 60 (88103) - https://sketch.com -->
    <title>stripe-verified-partner</title>
    <desc>Created with Sketch.</desc>
    <g id="Page-1" stroke="none" stroke-width="1" fill="none" fill-rule="evenodd">
        <g id="logos" transform="translate(-1891.000000, -1880.000000)" fill="#555ABF" fill-rule="nonzero">
            <g id="stripe-verified-partner" transform="translate(1891.000000, 1880.000000)">
                <path d="M431.05,25.1777778 L414.611111,67.2222222 L405.811111,67.2222222 L389.311111,25.1777778 L399.761111,25.1777778 L410.211111,53.4722222 L420.661111,25.1777778 L431.05,25.1777778 Z M435.816667,67.2222222 L435.816667,25.1777778 L462.338889,25.1777778 L462.338889,33.4888889 L446.022222,33.4888889 L446.022222,41.8611111 L459.955556,41.8611111 L459.955556,49.8666667 L446.022222,49.8666667 L446.022222,58.9111111 L462.827778,58.9111111 L462.827778,67.2222222 L435.816667,67.2222222 Z M480.672222,33.2444444 L480.672222,44.3666667 L485.316667,44.3666667 C488.8,44.3666667 491.305556,41.9833333 491.305556,38.8055556 C491.305556,35.5055556 488.8,33.2444444 485.316667,33.2444444 L480.672222,33.2444444 Z M470.711111,67.2222222 L470.711111,25.1777778 L486.661111,25.1777778 C495.338889,25.1777778 501.511111,30.8 501.511111,38.8055556 C501.511111,44.2444444 498.638889,48.6444444 493.811111,50.9666667 L503.161111,67.2222222 L492.283333,67.2222222 L484.094444,52.3722222 L480.672222,52.3722222 L480.672222,67.2222222 L470.711111,67.2222222 Z M509.822222,67.2222222 L509.822222,25.1777778 L520.027778,25.1777778 L520.027778,67.2222222 L509.822222,67.2222222 Z M530.05,67.2222222 L530.05,25.1777778 L556.572222,25.1777778 L556.572222,33.4888889 L540.255556,33.4888889 L540.255556,43.45 L554.188889,43.45 L554.188889,51.7611111 L540.255556,51.7611111 L540.255556,67.2222222 L530.05,67.2222222 Z M563.477778,67.2222222 L563.477778,25.1777778 L573.683333,25.1777778 L573.683333,67.2222222 L563.477778,67.2222222 Z M583.705556,67.2222222 L583.705556,25.1777778 L610.227778,25.1777778 L610.227778,33.4888889 L593.911111,33.4888889 L593.911111,41.8611111 L607.844444,41.8611111 L607.844444,49.8666667 L593.911111,49.8666667 L593.911111,58.9111111 L610.716667,58.9111111 L610.716667,67.2222222 L583.705556,67.2222222 Z M618.6,67.2222222 L618.6,25.1777778 L635.283333,25.1777778 C647.444444,25.1777778 656.061111,33.9166667 656.061111,46.2 C656.061111,58.4833333 647.444444,67.2222222 635.283333,67.2222222 L618.6,67.2222222 Z M628.805556,33.4888889 L628.805556,58.9111111 L634.794444,58.9111111 C641.211111,58.9111111 645.672222,53.7166667 645.672222,46.2 C645.672222,38.6833333 641.211111,33.4888889 634.794444,33.4888889 L628.805556,33.4888889 Z M678.733333,67.2222222 L678.733333,25.1777778 L694.927778,25.1777778 C703.727778,25.1777778 709.961111,30.9222222 709.961111,39.05 C709.961111,47.1777778 703.727778,52.8 694.927778,52.8 L688.694444,52.8 L688.694444,67.2222222 L678.733333,67.2222222 Z M688.694444,33.2444444 L688.694444,44.7944444 L693.583333,44.7944444 C697.188889,44.7944444 699.816667,42.4111111 699.816667,39.05 C699.816667,35.5666667 697.188889,33.2444444 693.583333,33.2444444 L688.694444,33.2444444 Z M707.761111,67.2222222 L724.261111,25.1777778 L733.061111,25.1777778 L749.5,67.2222222 L739.6,67.2222222 L736.361111,58.5444444 L720.9,58.5444444 L717.722222,67.2222222 L707.761111,67.2222222 Z M728.661111,37.4611111 L723.711111,50.9666667 L733.55,50.9666667 L728.661111,37.4611111 Z M764.227778,33.2444444 L764.227778,44.3666667 L768.872222,44.3666667 C772.355556,44.3666667 774.861111,41.9833333 774.861111,38.8055556 C774.861111,35.5055556 772.355556,33.2444444 768.872222,33.2444444 L764.227778,33.2444444 Z M754.266667,67.2222222 L754.266667,25.1777778 L770.216667,25.1777778 C778.894444,25.1777778 785.066667,30.8 785.066667,38.8055556 C785.066667,44.2444444 782.194444,48.6444444 777.366667,50.9666667 L786.716667,67.2222222 L775.838889,67.2222222 L767.65,52.3722222 L764.227778,52.3722222 L764.227778,67.2222222 L754.266667,67.2222222 Z M800.955556,67.2222222 L800.955556,33.4888889 L788.794444,33.4888889 L788.794444,25.1777778 L823.2,25.1777778 L823.2,33.4888889 L811.1,33.4888889 L811.1,67.2222222 L800.955556,67.2222222 Z M829.677778,67.2222222 L829.677778,25.1777778 L838.477778,25.1777778 L857.422222,51.0888889 L857.422222,25.1777778 L866.894444,25.1777778 L866.894444,67.2222222 L858.094444,67.2222222 L839.211111,41.3111111 L839.211111,67.2222222 L829.677778,67.2222222 Z M876.916667,67.2222222 L876.916667,25.1777778 L903.438889,25.1777778 L903.438889,33.4888889 L887.122222,33.4888889 L887.122222,41.8611111 L901.055556,41.8611111 L901.055556,49.8666667 L887.122222,49.8666667 L887.122222,58.9111111 L903.927778,58.9111111 L903.927778,67.2222222 L876.916667,67.2222222 Z M921.772222,33.2444444 L921.772222,44.3666667 L926.416667,44.3666667 C929.9,44.3666667 932.405556,41.9833333 932.405556,38.8055556 C932.405556,35.5055556 929.9,33.2444444 926.416667,33.2444444 L921.772222,33.2444444 Z M911.811111,67.2222222 L911.811111,25.1777778 L927.761111,25.1777778 C936.438889,25.1777778 942.611111,30.8 942.611111,38.8055556 C942.611111,44.2444444 939.738889,48.6444444 934.911111,50.9666667 L944.261111,67.2222222 L933.383333,67.2222222 L925.194444,52.3722222 L921.772222,52.3722222 L921.772222,67.2222222 L911.811111,67.2222222 Z M256.222222,20.0366139 L345.111111,0.555555556 L345.111111,69.9863994 L256.222222,89.4444444 L256.222222,20.0366139 Z M289.794909,60.3003978 C291.723335,62.13062 294.805224,62.1208267 296.721296,60.2783878 L321.441856,36.5303667 C323.371233,34.6551822 323.371233,31.6149067 321.441856,29.7397217 C319.512479,27.8645372 316.384341,27.8645372 314.454963,29.7397217 L293.269232,50.0165039 L286.87837,44.1836606 C284.948993,42.3084756 281.820854,42.3084756 279.891477,44.1836606 C277.9621,46.058845 277.9621,49.0991206 279.891477,50.9743056 L289.794909,60.3003978 Z M211.582377,51.7931511 L183.249249,51.7931511 C183.894072,58.7362828 188.865071,60.7800272 194.50434,60.7800272 C200.253034,60.7800272 204.778518,59.5441822 208.725616,57.5044372 L208.725616,69.438945 C204.790242,71.6666667 199.600395,73.278465 192.679296,73.278465 C178.583076,73.278465 168.703608,64.2435944 168.703608,46.3778278 C168.703608,31.2917133 177.082397,19.3092111 190.854252,19.3092111 C204.602657,19.3092111 211.777778,31.2877139 211.777778,46.4578178 C211.777778,47.8896389 211.648813,50.9932511 211.582377,51.7931511 Z M190.760459,31.3877017 C187.141635,31.3877017 183.120284,34.1833522 183.120284,40.8585178 L198.084084,40.8585178 C198.084084,34.1913511 194.316755,31.3877017 190.760459,31.3877017 Z M145.747912,73.278465 C140.683122,73.278465 137.587972,71.0907389 135.508906,69.5309339 L135.477642,86.2928383 L121.006253,89.4444444 L120.998437,20.2970878 L133.74639,20.2970878 L134.496729,23.9566306 C136.501543,22.04087 140.163355,19.3092111 145.837797,19.3092111 C156.002551,19.3092111 165.577194,28.68004 165.577194,45.9258844 C165.577194,64.7515311 156.104159,73.278465 145.747912,73.278465 Z M142.379201,32.4315711 C139.053478,32.4315711 136.974413,33.6754156 135.465918,35.3672039 L135.551894,57.3804522 C136.954873,58.9362578 138.983134,60.1921011 142.379201,60.1921011 C147.729277,60.1921011 151.316837,54.2288467 151.316837,46.2538433 C151.316837,38.5028122 147.674565,32.4315711 142.379201,32.4315711 Z M100.555597,20.2970878 L115.085606,20.2970878 L115.085606,72.2185978 L100.555597,72.2185978 L100.555597,20.2970878 Z M100.555597,3.71916 L115.085606,0.555555556 L115.085606,12.6220472 L100.555597,15.7816522 L100.555597,3.71916 Z M85.5449011,37.0189978 L85.5449011,72.2185978 L71.07742,72.2185978 L71.07742,20.2970878 L83.5908922,20.2970878 L84.5014606,24.6765406 C87.8858039,18.3013372 94.65449,19.5931761 96.5811428,20.3010872 L96.5811428,33.9153856 C94.7404667,33.3074617 88.9644167,32.4195728 85.5449011,37.0189978 Z M54.9959272,54.000875 C54.9959272,62.7317833 64.1289644,60.0161228 65.9852728,59.2562178 L65.9852728,71.3147106 C64.0547122,72.398575 60.5570367,73.278465 55.8244272,73.278465 C47.2346044,73.278465 40.7902833,66.8032744 40.7902833,58.0323711 L40.8528117,10.5063117 L54.9842033,7.43469556 L54.9959272,20.2970878 L65.9891811,20.2970878 L65.9891811,32.9275089 L54.9959272,32.9275089 L54.9959272,54.000875 Z M37.4332961,56.5285589 C37.4332961,67.1912261 29.1404828,73.278465 17.1037889,73.278465 C12.11325,73.278465 6.65765778,72.2865894 1.27631722,69.9148856 L1.27631722,55.7726533 C6.13398333,58.4763156 12.3242833,60.5040622 17.1194206,60.5040622 C20.3474433,60.5040622 22.6727139,59.6161728 22.6727139,56.880515 C22.6727139,49.8093989 0.666666667,52.4730661 0.666666667,36.0711161 C0.666666667,25.5844272 8.49442611,19.3092111 20.2341106,19.3092111 C25.0292483,19.3092111 29.8243861,20.0651167 34.6195239,22.0208722 L34.6195239,35.9711283 C30.2151878,33.5394328 24.6267228,32.159605 20.2223867,32.159605 C17.189765,32.159605 15.3061006,33.0554933 15.3061006,35.3712033 C15.3061006,42.0343706 37.4332961,38.8667667 37.4332961,56.5285589 Z" id="Shape"></path>
            </g>
        </g>
    </g>
</svg>