<?xml version="1.0" encoding="UTF-8"?>
<svg width="142px" height="58px" viewBox="0 0 142 58" version="1.1" xmlns="http://www.w3.org/2000/svg" xmlns:xlink="http://www.w3.org/1999/xlink">
    <!-- Generator: Sketch 64 (93537) - https://sketch.com -->
    <title>capterra</title>
    <desc>Created with Sketch.</desc>
    <defs>
        <polygon id="path-1" points="0 0 160 0 160 80 0 80"></polygon>
    </defs>
    <g id="Page-1" stroke="none" stroke-width="1" fill="none" fill-rule="evenodd">
        <g id="capterra" transform="translate(-6.000000, -10.000000)">
            <mask id="mask-2" fill="white">
                <use xlink:href="#path-1"></use>
            </mask>
            <g id="Path"></g>
            <g id="Group" mask="url(#mask-2)">
                <g transform="translate(6.000000, 10.000000)">
                    <polygon id="Path" fill="#FF9D28" fill-rule="nonzero" points="0 11.4633 12.9314 11.4659 20.7946 11.4672 20.7946 3.6772"></polygon>
                    <polygon id="Path" fill="#68C5ED" fill-rule="nonzero" points="20.7948 3.6784 20.7948 31.181 30.6157 -3.55271368e-15"></polygon>
                    <polygon id="Path" fill="#044D80" fill-rule="nonzero" points="20.7946 11.4691 12.9314 11.4678 20.7946 31.1817"></polygon>
                    <polygon id="Path" fill="#E54747" fill-rule="nonzero" points="0 11.4653 14.9478 16.5262 12.9314 11.4679"></polygon>
                    <path d="M47.6366,23.9412 C47.5226,24.0553 47.3326,24.1975 47.067,24.3684 C46.8009,24.5394 46.4546,24.7102 46.0274,24.8813 C45.6001,25.0519 45.0776,25.1989 44.4608,25.3228 C43.8434,25.4459 43.1364,25.5078 42.3389,25.5078 C40.8007,25.5078 39.4714,25.2608 38.3512,24.7674 C37.2306,24.2739 36.3049,23.5851 35.5741,22.7023 C34.843,21.8193 34.3067,20.7752 33.9649,19.5691 C33.6231,18.3634 33.4523,17.0391 33.4523,15.5958 C33.4523,14.153 33.6374,12.8187 34.0077,11.594 C34.3779,10.3692 34.9333,9.311 35.6738,8.4181 C36.4144,7.5259 37.3401,6.8279 38.451,6.3246 C39.5618,5.8218 40.8671,5.5698 42.3673,5.5698 C43.1079,5.5698 43.7772,5.6365 44.3754,5.7692 C44.9736,5.9021 45.4956,6.0589 45.942,6.2392 C46.3879,6.4199 46.7583,6.6094 47.0528,6.8088 C47.347,7.0082 47.5701,7.1747 47.7223,7.3072 C47.8931,7.4595 48.04,7.6397 48.1637,7.8483 C48.287,8.0576 48.3488,8.2854 48.3488,8.532 C48.3488,8.9121 48.2064,9.2917 47.9216,9.6713 C47.6368,10.0514 47.3235,10.4027 46.9816,10.7252 C46.7537,10.4974 46.4974,10.2651 46.2126,10.0275 C45.9278,9.7902 45.6096,9.5815 45.2584,9.4008 C44.9069,9.2206 44.5081,9.0688 44.0621,8.9451 C43.6158,8.8218 43.1174,8.7599 42.5669,8.7599 C41.5984,8.7599 40.7867,8.9548 40.1315,9.3438 C39.4765,9.7332 38.9495,10.241 38.5508,10.8677 C38.152,11.4943 37.8672,12.2112 37.6962,13.0181 C37.5254,13.8254 37.44,14.6465 37.44,15.4819 C37.44,16.3746 37.5254,17.2291 37.6962,18.0452 C37.8671,18.8618 38.1612,19.5835 38.5793,20.2099 C38.9966,20.8365 39.5428,21.3399 40.217,21.7194 C40.8907,22.0996 41.731,22.2892 42.7377,22.2892 C43.269,22.2892 43.7582,22.2229 44.2046,22.0899 C44.6504,21.9571 45.0447,21.7956 45.3865,21.6054 C45.7283,21.416 46.0274,21.2167 46.2837,21.0076 C46.5401,20.7987 46.7537,20.6186 46.9246,20.4663 C47.0386,20.5994 47.1712,20.761 47.3234,20.9506 C47.4763,21.1422 47.619,21.3419 47.7506,21.5488 C47.8833,21.7579 47.9972,21.9666 48.0924,22.1752 C48.1872,22.3845 48.2347,22.5741 48.2347,22.7447 C48.2347,22.9919 48.1872,23.2006 48.0924,23.3715 C47.9971,23.5424 47.8453,23.7325 47.6366,23.9412 Z M62.315,21.7567 C62.315,23.266 62.5344,24.3644 62.974,25.0521 C62.6302,25.1856 62.3101,25.2812 62.0141,25.3385 C61.7177,25.3959 61.4075,25.4244 61.0828,25.4244 C60.3952,25.4244 59.8744,25.2907 59.5213,25.0233 C59.1676,24.7562 58.9432,24.3741 58.8479,23.8771 C58.4274,24.317 57.8735,24.6893 57.1859,24.995 C56.4982,25.3001 55.6574,25.4533 54.6643,25.4533 C54.1485,25.4533 53.6328,25.3818 53.117,25.2394 C52.6011,25.0959 52.1329,24.8631 51.7128,24.5398 C51.2924,24.2158 50.9487,23.7825 50.6813,23.2398 C50.4136,22.697 50.2801,22.0354 50.2801,21.2548 C50.2801,20.2837 50.5139,19.4931 50.9822,18.8841 C51.4501,18.2744 52.0375,17.7937 52.7445,17.4413 C53.4511,17.0893 54.2153,16.847 55.0369,16.7134 C55.858,16.5799 56.6129,16.4945 57.3005,16.4559 C57.5299,16.4371 57.7541,16.4272 57.974,16.4272 L58.59,16.4272 L58.59,15.9057 C58.59,15.1714 58.3939,14.6498 58.0026,14.3409 C57.6107,14.0319 56.9755,13.877 56.097,13.877 C55.2755,13.877 54.5447,14.0109 53.905,14.2781 C53.2647,14.5459 52.6392,14.8512 52.0281,15.1951 C51.7604,14.8705 51.5453,14.5124 51.3834,14.1206 C51.2209,13.7293 51.1398,13.4379 51.1398,13.2466 C51.1398,12.9794 51.2875,12.7215 51.584,12.4729 C51.8799,12.225 52.286,12.0002 52.8018,11.7996 C53.3177,11.599 53.9096,11.4369 54.5785,11.3125 C55.2469,11.1884 55.9538,11.1262 56.6989,11.1262 C57.7304,11.1262 58.6044,11.2315 59.3207,11.4414 C60.0371,11.6519 60.6196,11.9765 61.0686,12.4156 C61.5173,12.8554 61.8374,13.4043 62.0285,14.0633 C62.2192,14.7224 62.3151,15.4916 62.3151,16.3699 L62.3151,21.7567 L62.315,21.7567 Z M58.6471,18.4329 L58.2461,18.4329 C58.1121,18.4329 57.9783,18.4429 57.8449,18.4617 C57.3671,18.5002 56.8942,18.5574 56.4266,18.6334 C55.9582,18.7101 55.5427,18.8438 55.1801,19.0347 C54.817,19.2259 54.521,19.4744 54.2918,19.7796 C54.0625,20.0855 53.9479,20.4773 53.9479,20.9546 C53.9479,21.4896 54.1006,21.943 54.4063,22.3156 C54.7117,22.6882 55.2275,22.8744 55.9537,22.8744 C56.3164,22.8744 56.6603,22.827 56.9853,22.7309 C57.3099,22.6359 57.5964,22.5116 57.8449,22.3587 C58.093,22.2059 58.2891,22.0388 58.4324,21.8571 C58.5756,21.6758 58.6472,21.5088 58.6472,21.3558 L58.6472,18.4329 L58.6471,18.4329 Z M69.4495,12.788 C69.754,12.4254 70.2304,12.0574 70.8777,11.6848 C71.5251,11.3123 72.344,11.126 73.3344,11.126 C74.0392,11.126 74.7103,11.2455 75.3485,11.4842 C75.986,11.7232 76.5528,12.1102 77.0479,12.6447 C77.5431,13.1798 77.9382,13.8867 78.2336,14.7651 C78.5287,15.6441 78.6764,16.7236 78.6764,18.003 C78.6764,19.493 78.5048,20.7207 78.1621,21.6852 C77.8191,22.6502 77.3767,23.4143 76.8342,23.9777 C76.2914,24.5412 75.6865,24.9376 75.0203,25.1667 C74.3536,25.3959 73.687,25.5107 73.0207,25.5107 C72.4684,25.5107 71.9873,25.4485 71.5782,25.3245 C71.1685,25.2 70.8211,25.062 70.5355,24.9089 C70.2498,24.7563 70.0309,24.6037 69.8787,24.4504 C69.7265,24.2978 69.6311,24.1924 69.5931,24.135 L69.5931,31.179 L65.696,31.179 L65.696,11.5271 C65.7919,11.5084 65.9074,11.4892 66.0425,11.4699 C66.1581,11.4512 66.2928,11.4367 66.4468,11.4269 C66.6008,11.4175 66.7837,11.4126 66.9953,11.4126 C67.6302,11.4126 68.1692,11.5179 68.6119,11.7278 C69.0545,11.9383 69.3341,12.2915 69.4495,12.788 L69.4495,12.788 Z M74.6074,18.0889 C74.6074,17.5159 74.5599,16.9814 74.465,16.4844 C74.3701,15.988 74.2134,15.5581 73.9949,15.195 C73.7764,14.8323 73.4817,14.5503 73.1115,14.3496 C72.7407,14.1491 72.29,14.0489 71.7584,14.0489 C70.9607,14.0489 70.4051,14.202 70.0915,14.5072 C69.7782,14.8131 69.6215,15.1476 69.6215,15.5102 L69.6215,21.585 C69.7732,21.7381 70.0436,21.9193 70.4331,22.1294 C70.8227,22.3398 71.2735,22.4444 71.7866,22.4444 C72.7554,22.4444 73.4677,22.0628 73.9236,21.2984 C74.3795,20.5345 74.6074,19.4644 74.6074,18.0889 L74.6074,18.0889 Z M81.6842,23.0177 C81.5502,22.6359 81.4643,22.2345 81.4262,21.8141 C81.3878,21.3941 81.3689,20.974 81.3689,20.5531 L81.3689,7.2576 C81.5024,7.2389 81.6457,7.2197 81.7988,7.2003 C81.932,7.1816 82.0754,7.1673 82.2285,7.1574 C82.3812,7.148 82.5339,7.1431 82.6869,7.1431 C82.9923,7.1431 83.2982,7.1718 83.604,7.229 C83.9092,7.2864 84.1863,7.401 84.435,7.5728 C84.6831,7.7447 84.8836,7.979 85.0366,8.2749 C85.1894,8.5713 85.2658,8.9582 85.2658,9.4353 L85.2658,11.4697 L89.2776,11.4697 L89.2776,14.364 L85.2658,14.364 L85.2658,20.4745 C85.2658,21.8071 85.8103,22.4731 86.8992,22.4731 C87.1666,22.4731 87.4194,22.4304 87.6586,22.3442 C87.8973,22.2583 88.1121,22.1629 88.3033,22.0578 C88.4942,21.9527 88.6615,21.8429 88.8048,21.7282 C88.9481,21.6135 89.0483,21.5277 89.1055,21.4704 C89.3921,21.891 89.6115,22.2549 89.7646,22.5621 C89.9173,22.8696 89.9938,23.1583 89.9938,23.4279 C89.9938,23.6788 89.8938,23.9249 89.693,24.1657 C89.4922,24.4066 89.2103,24.6287 88.8476,24.8311 C88.4846,25.0334 88.0454,25.1972 87.5296,25.3227 C87.0138,25.4481 86.45,25.5108 85.839,25.5108 C84.6542,25.5108 83.7327,25.2814 83.0737,24.8231 C82.4147,24.3644 81.9512,23.7626 81.6842,23.0177 L81.6842,23.0177 Z M99.147,22.6451 C99.627,22.6451 100.048,22.5928 100.413,22.4875 C100.777,22.3828 101.103,22.2538 101.39,22.1009 C101.678,21.9483 101.927,21.781 102.138,21.5995 C102.349,21.4181 102.54,21.251 102.713,21.0978 C102.943,21.3842 103.183,21.7523 103.432,22.2009 C103.681,22.6502 103.806,23.0177 103.806,23.3041 C103.806,23.7246 103.567,24.1066 103.09,24.4504 C102.688,24.7563 102.12,25.0189 101.385,25.2383 C100.649,25.4578 99.784,25.5678 98.791,25.5678 C97.893,25.5678 97.01,25.4533 96.141,25.224 C95.272,24.9949 94.498,24.5936 93.8199,24.0204 C93.1414,23.4476 92.5922,22.6788 92.172,21.714 C91.7518,20.7493 91.5417,19.5318 91.5417,18.0604 C91.5417,16.8568 91.7281,15.8209 92.1003,14.9515 C92.473,14.0824 92.9694,13.3612 93.5908,12.7881 C94.211,12.215 94.913,11.7951 95.697,11.5272 C96.48,11.2601 97.282,11.1261 98.104,11.1261 C99.173,11.1261 100.081,11.2936 100.826,11.6276 C101.571,11.962 102.177,12.411 102.645,12.9744 C103.113,13.5379 103.452,14.1827 103.663,14.9085 C103.872,15.6347 103.978,16.3985 103.978,17.2008 L103.978,17.6019 C103.978,17.7552 103.973,17.9171 103.963,18.089 C103.954,18.2611 103.944,18.4285 103.935,18.5905 C103.925,18.7532 103.911,18.882 103.892,18.9774 L95.439,18.9774 C95.515,20.0282 95.841,20.902 96.416,21.5995 C96.991,22.2969 97.901,22.6451 99.147,22.6451 L99.147,22.6451 Z M100.453,16.8282 C100.453,15.9113 100.275,15.1663 99.92,14.5932 C99.564,14.0202 98.925,13.7335 98.004,13.7335 C97.216,13.7335 96.586,14.0059 96.116,14.5503 C95.645,15.0948 95.41,15.854 95.41,16.8281 L100.453,16.8281 L100.453,16.8282 Z M110.759,12.8605 C110.874,12.69 111.027,12.5006 111.218,12.2919 C111.409,12.0833 111.643,11.8938 111.92,11.7233 C112.197,11.5528 112.502,11.4103 112.837,11.2967 C113.171,11.183 113.529,11.1261 113.912,11.1261 C114.141,11.1261 114.384,11.1454 114.642,11.183 C114.9,11.221 115.139,11.2922 115.358,11.3961 C115.578,11.5005 115.755,11.6423 115.889,11.8224 C116.022,12.0024 116.089,12.2249 116.089,12.49 C116.089,12.9068 115.984,13.3854 115.774,13.9258 C115.563,14.4667 115.354,14.9279 115.144,15.3097 C114.818,15.0424 114.494,14.837 114.169,14.6937 C113.844,14.5505 113.462,14.4787 113.023,14.4787 C112.431,14.4787 111.934,14.6512 111.533,14.9959 C111.132,15.3406 110.931,15.7525 110.931,16.2315 L110.931,25.5076 L107.034,25.5076 L107.034,11.5271 C107.13,11.5084 107.244,11.4892 107.378,11.4699 C107.493,11.4512 107.626,11.4367 107.779,11.4269 C107.932,11.4175 108.113,11.4126 108.324,11.4126 C108.935,11.4126 109.465,11.5312 109.914,11.7677 C110.363,12.004 110.645,12.3685 110.759,12.8605 L110.759,12.8605 Z M121.839,12.8605 C121.954,12.69 122.106,12.5006 122.298,12.2919 C122.488,12.0833 122.722,11.8938 123,11.7233 C123.276,11.5528 123.582,11.4103 123.917,11.2967 C124.251,11.183 124.609,11.1261 124.991,11.1261 C125.22,11.1261 125.464,11.1454 125.722,11.183 C125.979,11.221 126.218,11.2922 126.438,11.3961 C126.658,11.5005 126.834,11.6423 126.968,11.8224 C127.102,12.0024 127.169,12.2249 127.169,12.49 C127.169,12.9068 127.063,13.3854 126.854,13.9258 C126.643,14.4667 126.433,14.9279 126.223,15.3097 C125.898,15.0424 125.573,14.837 125.249,14.6937 C124.924,14.5505 124.542,14.4787 124.103,14.4787 C123.511,14.4787 123.014,14.6512 122.613,14.9959 C122.212,15.3406 122.011,15.7525 122.011,16.2315 L122.011,25.5076 L118.114,25.5076 L118.114,11.5271 C118.209,11.5084 118.324,11.4892 118.458,11.4699 C118.573,11.4512 118.706,11.4367 118.859,11.4269 C119.012,11.4175 119.193,11.4126 119.403,11.4126 C120.015,11.4126 120.545,11.5312 120.994,11.7677 C121.442,12.004 121.724,12.3685 121.839,12.8605 L121.839,12.8605 Z M140.436,21.7567 C140.436,23.266 140.655,24.3644 141.095,25.0521 C140.751,25.1856 140.431,25.2812 140.135,25.3385 C139.839,25.3959 139.529,25.4244 139.204,25.4244 C138.516,25.4244 137.995,25.2907 137.642,25.0233 C137.288,24.7562 137.064,24.3741 136.969,23.8771 C136.549,24.317 135.995,24.6893 135.307,24.995 C134.619,25.3001 133.778,25.4533 132.785,25.4533 C132.269,25.4533 131.754,25.3818 131.238,25.2394 C130.722,25.0959 130.254,24.8631 129.834,24.5398 C129.413,24.2158 129.07,23.7825 128.802,23.2398 C128.535,22.697 128.401,22.0354 128.401,21.2548 C128.401,20.2837 128.635,19.4931 129.103,18.8841 C129.571,18.2744 130.159,17.7937 130.866,17.4413 C131.572,17.0893 132.336,16.847 133.158,16.7134 C133.979,16.5799 134.734,16.4945 135.422,16.4559 C135.651,16.4371 135.875,16.4272 136.095,16.4272 L136.711,16.4272 L136.711,15.9057 C136.711,15.1714 136.515,14.6498 136.124,14.3409 C135.732,14.0319 135.097,13.877 134.218,13.877 C133.397,13.877 132.666,14.0109 132.026,14.2781 C131.386,14.5459 130.76,14.8512 130.149,15.1951 C129.881,14.8705 129.666,14.5124 129.504,14.1206 C129.342,13.7293 129.261,13.4379 129.261,13.2466 C129.261,12.9794 129.409,12.7215 129.705,12.4729 C130.001,12.225 130.407,12.0002 130.923,11.7996 C131.439,11.599 132.031,11.4369 132.699,11.3125 C133.368,11.1884 134.075,11.1262 134.82,11.1262 C135.851,11.1262 136.725,11.2315 137.442,11.4414 C138.158,11.6519 138.74,11.9765 139.19,12.4156 C139.638,12.8554 139.958,13.4043 140.15,14.0633 C140.34,14.7224 140.436,15.4916 140.436,16.3699 L140.436,21.7567 Z M136.768,18.4329 L136.367,18.4329 C136.233,18.4329 136.099,18.4429 135.966,18.4617 C135.488,18.5002 135.015,18.5574 134.548,18.6334 C134.079,18.7101 133.664,18.8438 133.301,19.0347 C132.938,19.2259 132.642,19.4744 132.413,19.7796 C132.184,20.0855 132.069,20.4773 132.069,20.9546 C132.069,21.4896 132.222,21.943 132.527,22.3156 C132.833,22.6882 133.349,22.8744 134.075,22.8744 C134.437,22.8744 134.781,22.827 135.106,22.7309 C135.431,22.6359 135.717,22.5116 135.966,22.3587 C136.214,22.2059 136.41,22.0388 136.553,21.8571 C136.697,21.6758 136.768,21.5088 136.768,21.3558 L136.768,18.4329 Z" id="Shape" fill="#044D80" fill-rule="nonzero"></path>
                    <rect id="Rectangle" fill="#FFFFFF" fill-rule="nonzero" x="17" y="41" width="114" height="17" rx="8.5"></rect>
                    <g id="Group" stroke-width="1" fill="none" fill-rule="evenodd" transform="translate(40.000000, 43.000000)">
                        <path d="M6.2622,0.7318 C6.33709103,0.5014 6.6629,0.5014 6.7378,0.7318 L7.9032,4.3186 C7.9367,4.4216 8.0327,4.4914 8.141,4.4914 L11.9124,4.4914 C12.1546,4.4914 12.2553,4.8013 12.0594,4.9436 L9.0082,7.1605 C8.9206,7.2241 8.8839,7.337 8.9174,7.44 L10.0828,11.0268 C10.1577,11.2572 9.8941,11.4487 9.6981,11.3064 L6.6469,9.0895 C6.5593,9.0259 6.4407,9.0259 6.3531,9.0895 L3.3019,11.3064 C3.1059,11.4487 2.8423,11.2572 2.9172,11.0268 L4.0826,7.44 C4.1161,7.337 4.0794,7.2241 3.9918,7.1605 L0.9406,4.9436 C0.7447,4.8013 0.8454,4.4914 1.0876,4.4914 L4.859,4.4914 C4.9673,4.4914 5.0633,4.4216 5.0968,4.3186 L6.2622,0.7318 Z" id="Path" fill="#FFB342" fill-rule="nonzero"></path>
                        <path d="M20.2622,0.7318 C20.337091,0.5014 20.6629,0.5014 20.7378,0.7318 L21.9032,4.3186 C21.9367,4.4216 22.0327,4.4914 22.141,4.4914 L25.9124,4.4914 C26.1546,4.4914 26.2553,4.8013 26.0594,4.9436 L23.0082,7.1605 C22.9206,7.2241 22.8839,7.337 22.9174,7.44 L24.0828,11.0268 C24.1577,11.2572 23.8941,11.4487 23.6981,11.3064 L20.6469,9.0895 C20.5593,9.0259 20.4407,9.0259 20.3531,9.0895 L17.3019,11.3064 C17.1059,11.4487 16.8423,11.2572 16.9172,11.0268 L18.0826,7.44 C18.1161,7.337 18.0794,7.2241 17.9918,7.1605 L14.9406,4.9436 C14.7447,4.8013 14.8454,4.4914 15.0876,4.4914 L18.859,4.4914 C18.9673,4.4914 19.0633,4.4216 19.0968,4.3186 L20.2622,0.7318 Z" id="Path" fill="#FFB342" fill-rule="nonzero"></path>
                        <path d="M34.2622,0.7318 C34.337091,0.5014 34.6629,0.5014 34.7378,0.7318 L35.9032,4.3186 C35.9367,4.4216 36.0327,4.4914 36.141,4.4914 L39.9124,4.4914 C40.1546,4.4914 40.2553,4.8013 40.0594,4.9436 L37.0082,7.1605 C36.9206,7.2241 36.8839,7.337 36.9174,7.44 L38.0828,11.0268 C38.1577,11.2572 37.8941,11.4487 37.6981,11.3064 L34.6469,9.0895 C34.5593,9.0259 34.4407,9.0259 34.3531,9.0895 L31.3019,11.3064 C31.1059,11.4487 30.8423,11.2572 30.9172,11.0268 L32.0826,7.44 C32.1161,7.337 32.0794,7.2241 31.9918,7.1605 L28.9406,4.9436 C28.7447,4.8013 28.8454,4.4914 29.0876,4.4914 L32.859,4.4914 C32.9673,4.4914 33.0633,4.4216 33.0968,4.3186 L34.2622,0.7318 Z" id="Path" fill="#FFB342" fill-rule="nonzero"></path>
                        <path d="M48.2622,0.7318 C48.337091,0.5014 48.6629,0.5014 48.7378,0.7318 L49.9032,4.3186 C49.9367,4.4216 50.0327,4.4914 50.141,4.4914 L53.9124,4.4914 C54.1546,4.4914 54.2553,4.8013 54.0594,4.9436 L51.0082,7.1605 C50.9206,7.2241 50.8839,7.337 50.9174,7.44 L52.0828,11.0268 C52.1577,11.2572 51.8941,11.4487 51.6981,11.3064 L48.6469,9.0895 C48.5593,9.0259 48.4407,9.0259 48.3531,9.0895 L45.3019,11.3064 C45.1059,11.4487 44.8423,11.2572 44.9172,11.0268 L46.0826,7.44 C46.1161,7.337 46.0794,7.2241 45.9918,7.1605 L42.9406,4.9436 C42.7447,4.8013 42.8454,4.4914 43.0876,4.4914 L46.859,4.4914 C46.9673,4.4914 47.0633,4.4216 47.0968,4.3186 L48.2622,0.7318 Z" id="Path" fill="#FFB342" fill-rule="nonzero"></path>
                        <path d="M62.2622,0.7318 C62.337091,0.5014 62.6629,0.5014 62.7378,0.7318 L63.9032,4.3186 C63.9367,4.4216 64.0327,4.4914 64.141,4.4914 L67.9124,4.4914 C68.1546,4.4914 68.2553,4.8013 68.0594,4.9436 L65.0082,7.1605 C64.9206,7.2241 64.8839,7.337 64.9174,7.44 L66.0828,11.0268 C66.1577,11.2572 65.8941,11.4487 65.6981,11.3064 L62.6469,9.0895 C62.5593,9.0259 62.4407,9.0259 62.3531,9.0895 L59.3019,11.3064 C59.1059,11.4487 58.8423,11.2572 58.9172,11.0268 L60.0826,7.44 C60.1161,7.337 60.0794,7.2241 59.9918,7.1605 L56.9406,4.9436 C56.7447,4.8013 56.8454,4.4914 57.0876,4.4914 L60.859,4.4914 C60.9673,4.4914 61.0633,4.4216 61.0968,4.3186 L62.2622,0.7318 Z" id="Path" fill="#FFB342" fill-rule="nonzero"></path>
                    </g>
                </g>
            </g>
        </g>
    </g>
</svg>