<?xml version="1.0" encoding="UTF-8"?>
<svg width="123px" height="58px" viewBox="0 0 123 58" version="1.1" xmlns="http://www.w3.org/2000/svg" xmlns:xlink="http://www.w3.org/1999/xlink">
    <!-- Generator: Sketch 64 (93537) - https://sketch.com -->
    <title>g2</title>
    <desc>Created with Sketch.</desc>
    <defs>
        <polygon id="path-1" points="0 0 160 0 160 80 0 80"></polygon>
    </defs>
    <g id="Page-1" stroke="none" stroke-width="1" fill="none" fill-rule="evenodd">
        <g id="g2" transform="translate(-16.000000, -10.000000)">
            <mask id="mask-2" fill="white">
                <use xlink:href="#path-1"></use>
            </mask>
            <g id="Path"></g>
            <g id="Group" mask="url(#mask-2)">
                <g transform="translate(16.000000, 10.000000)">
                    <path d="M26.5514,7.6186 C26.2069,8.0036 25.8017,8.3886 25.3761,8.8141 L23.6944,10.4148 L28.5776,10.4148 L28.5776,12.4005 L20.7158,12.4005 L20.7158,11.3671 L23.4512,8.0644 C23.9578,7.5578 24.3833,7.112 24.6872,6.7271 C24.9912,6.3623 25.3559,5.9166 25.518,5.6329 C25.7206,5.3087 26.754,4.3159 26.6527,3.0799 C26.2069,1.702 24.9304,1.5805 24.1807,1.6818 C23.4107,1.702 22.5192,2.7354 22.3773,3.6269 C22.3773,3.6269 20.9792,3.4243 20.6753,3.2825 C20.6956,2.8975 21.3642,1.2157 22.661,0.466 C23.2891,0.1824 23.6944,0.0405 24.4238,0.0405 C24.9912,0.0405 25.4977,0.1216 25.9637,0.2634 C26.4298,0.4052 26.8148,0.6281 27.139,0.9118 C27.4632,1.1955 28.0102,1.5399 28.1723,1.9654 C28.4357,2.5125 28.6384,3.0799 28.6384,3.6472 C28.6991,4.9035 27.6253,6.1394 27.4226,6.4636 C27.1795,6.8689 26.8958,7.2539 26.5514,7.6186 Z M17.4334,34 C8.1127,34 0.5752,26.4422 0.5752,17.1418 C0.5752,7.8212 8.133,0.2837 17.4334,0.2837 L17.4334,6.2408 C11.4155,6.2408 6.5323,11.124 6.5323,17.1418 C6.5323,23.1597 11.4155,28.0632 17.4334,28.0632 C22.2152,28.0632 26.2677,24.9833 27.7468,20.708 C24.8291,20.708 20.6956,20.6877 20.6956,20.6877 L20.6956,14.447 L34.0889,14.447 C34.2307,15.3182 34.3118,16.23 34.3118,17.1418 C34.2915,26.4625 26.754,34 17.4334,34 Z M39.9649,0 L41.0996,0 L41.0996,33.7163 L39.9649,33.7163 L39.9649,0 Z M56.4381,24.9023 C55.4655,25.4899 54.2498,25.7938 52.8314,25.7938 C51.3523,25.7938 50.1163,25.5507 49.164,25.0441 C48.1914,24.5375 47.5633,23.8486 47.2391,22.9571 C46.9351,22.0656 46.773,20.7282 46.773,18.9452 L46.773,13.6162 C46.773,12.2992 46.8136,11.3266 46.9149,10.6579 C47.0162,10.0095 47.2999,9.3611 47.7862,8.7533 C48.2724,8.1454 48.9208,7.6591 49.7718,7.3147 C50.6229,6.9702 51.5954,6.7878 52.6896,6.7878 C54.189,6.7878 55.425,7.0513 56.3976,7.5983 C57.3702,8.1454 57.9983,8.8141 58.3225,9.6246 C58.6264,10.435 58.6872,10.1919 58.6872,11.8939 L58.6872,13.3123 L54.5537,13.2515 L54.5537,12.0155 C54.5537,11.0834 54.4524,10.4958 54.2295,10.2527 C54.0067,10.0298 53.5406,9.9082 52.8314,9.9082 C52.0007,9.9082 51.4941,10.0501 51.2713,10.3337 C51.0484,10.6174 50.9471,11.2253 50.9471,12.1573 L50.9471,20.4851 C50.9471,21.3766 51.0484,21.9642 51.2713,22.2479 C51.4941,22.5316 51.9804,22.6532 52.7707,22.6532 C53.5204,22.6532 53.9864,22.5113 54.2295,22.2479 C54.4524,21.9642 54.574,21.5995 54.574,20.5864 L54.5537,19.2694 L58.7075,19.2694 L58.7075,19.553 C58.7075,21.4374 58.6467,22.0453 58.363,22.8153 C58.0388,23.6055 57.4107,24.3147 56.4381,24.9023 L56.4381,24.9023 Z M68.251,11.6103 C68.251,11.0429 67.9673,10.3743 67.4202,10.1919 C66.8732,10.0095 66.164,9.9285 64.7051,9.9285 L64.7051,15.0953 C66.1235,15.0953 66.8326,15.0143 67.3797,14.8725 C67.9471,14.7306 68.2307,13.4136 68.2307,12.6031 L68.2307,11.6103 L68.251,11.6103 Z M68.251,19.7759 C68.251,18.8033 68.0484,18.2157 67.6431,17.9726 C67.2379,17.7497 66.4477,17.6281 64.7254,17.6281 L64.7254,25.5101 L60.6527,25.5101 L60.7134,7.1931 L64.3809,7.1931 C66.8326,7.1931 68.4941,7.2741 69.3654,7.4565 C70.2367,7.6389 70.9459,8.0644 71.4929,8.7735 C72.04,9.4827 72.3237,10.6174 72.3237,12.1776 C72.3237,13.5959 72.0806,14.8725 71.7158,15.3588 C71.3308,15.8451 70.5811,16.149 69.4667,16.2503 C70.4798,16.4934 71.1688,16.7974 71.5132,17.1824 C71.8577,17.5673 72.0805,17.9321 72.1616,18.2563 C72.2426,18.5805 72.344,19.1275 72.344,20.6067 L72.344,25.4088 L68.2915,25.5101 L68.2915,19.7759 L68.251,19.7759 Z M82.7587,11.8939 C82.7587,11.0429 82.6169,10.5161 82.3535,10.2729 C82.0901,10.0298 81.5227,9.9285 80.692,9.9285 C79.9828,9.9285 79.4357,10.0298 79.0507,10.2122 C78.6658,10.3945 78.4834,10.9619 78.4834,11.8939 L78.4834,20.3635 C78.4834,21.4172 78.605,22.0656 78.8481,22.3087 C79.0913,22.5518 79.6789,22.6734 80.5704,22.6734 C81.5025,22.6734 82.0901,22.5316 82.3535,22.2479 C82.6169,21.9642 82.7385,21.2956 82.7385,20.2217 L82.7385,11.8939 L82.7587,11.8939 Z M85.94,23.8284 C85.433,24.4565 84.724,24.9428 83.8529,25.2872 C82.9816,25.6317 81.9482,25.7938 80.773,25.7938 C79.6586,25.7938 78.6658,25.6317 77.7742,25.3075 C76.8827,24.9833 76.1735,24.5173 75.6467,23.8689 C75.0996,23.2408 74.7957,22.5316 74.6944,21.7819 C74.5931,21.0322 74.5323,19.7151 74.5323,17.8307 L74.5323,14.7104 C74.5323,12.8868 74.5728,11.59 74.6741,10.82 C74.7754,10.0501 75.0794,9.3611 75.6062,8.733 C76.133,8.1049 76.8219,7.6186 77.6932,7.2741 C78.5645,6.9297 79.5978,6.7676 80.773,6.7676 C81.8875,6.7676 82.8803,6.9297 83.7718,7.2539 C84.663,7.5781 85.373,8.0441 85.899,8.6925 C86.426,9.3206 86.75,10.0298 86.852,10.7795 C86.953,11.5292 87.014,12.8462 87.014,14.7104 L87.014,17.851 C87.014,19.6746 86.973,20.9714 86.872,21.7414 C86.771,22.5113 86.467,23.2002 85.94,23.8284 L85.94,23.8284 Z M101.056,25.4088 C100.468,22.6126 99.09,15.7437 98.624,12.1573 C98.421,13.6973 96.8,20.5661 96.051,25.4088 L91.593,25.4088 L88.128,7.1728 L92.039,7.1728 L93.153,13.5352 L93.964,21.093 C94.146,17.9118 95.767,12.3194 96.537,7.1728 L101.076,7.1728 C101.137,7.6996 101.907,9.7056 102.21,13.1907 L103.345,20.9714 C103.649,16.5542 104.682,11.3874 105.371,7.1728 L108.998,7.1728 L105.27,25.4088 L101.056,25.4088 Z M118.177,12.441 C118.177,11.6305 118.116,11.1037 117.995,10.8605 C117.873,10.6377 117.569,10.4553 117.103,10.354 C116.637,10.2527 115.786,10.1919 114.51,10.1919 L114.51,22.3695 C116.191,22.3695 117.205,22.2276 117.61,21.9642 C117.995,21.7008 118.197,20.9511 118.197,19.7354 L118.197,12.441 L118.177,12.441 Z M121.885,23.2813 C121.723,23.8284 121.419,24.2741 120.994,24.5781 C120.568,24.882 120.061,25.1049 119.433,25.2265 C118.825,25.348 118.177,25.4088 116.921,25.4088 L110.376,25.4088 L110.376,7.1728 L114.266,7.1728 C116.779,7.1728 118.197,7.2741 119.069,7.497 C119.96,7.6996 120.629,8.0441 121.095,8.5304 C121.561,9.0167 121.845,9.5435 121.966,10.1311 C122.088,10.7187 122.128,11.8737 122.128,13.5959 L122.128,19.9785 C122.148,21.6198 122.067,22.7139 121.885,23.2813 L121.885,23.2813 Z" id="Shape" fill="#456372" fill-rule="evenodd"></path>
                    <rect id="Rectangle" fill="#FFFFFF" fill-rule="nonzero" x="7" y="41" width="114" height="17" rx="8.5"></rect>
                    <g id="Group" stroke-width="1" fill="none" fill-rule="evenodd" transform="translate(30.000000, 43.000000)">
                        <path d="M6.2622,0.7318 C6.33709103,0.5014 6.6629,0.5014 6.7378,0.7318 L7.9032,4.3186 C7.9367,4.4216 8.0327,4.4914 8.141,4.4914 L11.9124,4.4914 C12.1546,4.4914 12.2553,4.8013 12.0594,4.9436 L9.0082,7.1605 C8.9206,7.2241 8.8839,7.337 8.9174,7.44 L10.0828,11.0268 C10.1577,11.2572 9.8941,11.4487 9.6981,11.3064 L6.6469,9.0895 C6.5593,9.0259 6.4407,9.0259 6.3531,9.0895 L3.3019,11.3064 C3.1059,11.4487 2.8423,11.2572 2.9172,11.0268 L4.0826,7.44 C4.1161,7.337 4.0794,7.2241 3.9918,7.1605 L0.9406,4.9436 C0.7447,4.8013 0.8454,4.4914 1.0876,4.4914 L4.859,4.4914 C4.9673,4.4914 5.0633,4.4216 5.0968,4.3186 L6.2622,0.7318 Z" id="Path" fill="#FFB342" fill-rule="nonzero"></path>
                        <path d="M20.2622,0.7318 C20.337091,0.5014 20.6629,0.5014 20.7378,0.7318 L21.9032,4.3186 C21.9367,4.4216 22.0327,4.4914 22.141,4.4914 L25.9124,4.4914 C26.1546,4.4914 26.2553,4.8013 26.0594,4.9436 L23.0082,7.1605 C22.9206,7.2241 22.8839,7.337 22.9174,7.44 L24.0828,11.0268 C24.1577,11.2572 23.8941,11.4487 23.6981,11.3064 L20.6469,9.0895 C20.5593,9.0259 20.4407,9.0259 20.3531,9.0895 L17.3019,11.3064 C17.1059,11.4487 16.8423,11.2572 16.9172,11.0268 L18.0826,7.44 C18.1161,7.337 18.0794,7.2241 17.9918,7.1605 L14.9406,4.9436 C14.7447,4.8013 14.8454,4.4914 15.0876,4.4914 L18.859,4.4914 C18.9673,4.4914 19.0633,4.4216 19.0968,4.3186 L20.2622,0.7318 Z" id="Path" fill="#FFB342" fill-rule="nonzero"></path>
                        <path d="M34.2622,0.7318 C34.337091,0.5014 34.6629,0.5014 34.7378,0.7318 L35.9032,4.3186 C35.9367,4.4216 36.0327,4.4914 36.141,4.4914 L39.9124,4.4914 C40.1546,4.4914 40.2553,4.8013 40.0594,4.9436 L37.0082,7.1605 C36.9206,7.2241 36.8839,7.337 36.9174,7.44 L38.0828,11.0268 C38.1577,11.2572 37.8941,11.4487 37.6981,11.3064 L34.6469,9.0895 C34.5593,9.0259 34.4407,9.0259 34.3531,9.0895 L31.3019,11.3064 C31.1059,11.4487 30.8423,11.2572 30.9172,11.0268 L32.0826,7.44 C32.1161,7.337 32.0794,7.2241 31.9918,7.1605 L28.9406,4.9436 C28.7447,4.8013 28.8454,4.4914 29.0876,4.4914 L32.859,4.4914 C32.9673,4.4914 33.0633,4.4216 33.0968,4.3186 L34.2622,0.7318 Z" id="Path" fill="#FFB342" fill-rule="nonzero"></path>
                        <path d="M48.2622,0.7318 C48.337091,0.5014 48.6629,0.5014 48.7378,0.7318 L49.9032,4.3186 C49.9367,4.4216 50.0327,4.4914 50.141,4.4914 L53.9124,4.4914 C54.1546,4.4914 54.2553,4.8013 54.0594,4.9436 L51.0082,7.1605 C50.9206,7.2241 50.8839,7.337 50.9174,7.44 L52.0828,11.0268 C52.1577,11.2572 51.8941,11.4487 51.6981,11.3064 L48.6469,9.0895 C48.5593,9.0259 48.4407,9.0259 48.3531,9.0895 L45.3019,11.3064 C45.1059,11.4487 44.8423,11.2572 44.9172,11.0268 L46.0826,7.44 C46.1161,7.337 46.0794,7.2241 45.9918,7.1605 L42.9406,4.9436 C42.7447,4.8013 42.8454,4.4914 43.0876,4.4914 L46.859,4.4914 C46.9673,4.4914 47.0633,4.4216 47.0968,4.3186 L48.2622,0.7318 Z" id="Path" fill="#FFB342" fill-rule="nonzero"></path>
                        <path d="M62.2622,0.7318 C62.337091,0.5014 62.6629,0.5014 62.7378,0.7318 L63.9032,4.3186 C63.9367,4.4216 64.0327,4.4914 64.141,4.4914 L67.9124,4.4914 C68.1546,4.4914 68.2553,4.8013 68.0594,4.9436 L65.0082,7.1605 C64.9206,7.2241 64.8839,7.337 64.9174,7.44 L66.0828,11.0268 C66.1577,11.2572 65.8941,11.4487 65.6981,11.3064 L62.6469,9.0895 C62.5593,9.0259 62.4407,9.0259 62.3531,9.0895 L59.3019,11.3064 C59.1059,11.4487 58.8423,11.2572 58.9172,11.0268 L60.0826,7.44 C60.1161,7.337 60.0794,7.2241 59.9918,7.1605 L56.9406,4.9436 C56.7447,4.8013 56.8454,4.4914 57.0876,4.4914 L60.859,4.4914 C60.9673,4.4914 61.0633,4.4216 61.0968,4.3186 L62.2622,0.7318 Z" id="Path" fill="#FFB342" fill-rule="nonzero"></path>
                    </g>
                </g>
            </g>
        </g>
    </g>
</svg>