<?xml version="1.0" encoding="UTF-8"?>
<svg width="149px" height="62px" viewBox="0 0 149 62" version="1.1" xmlns="http://www.w3.org/2000/svg" xmlns:xlink="http://www.w3.org/1999/xlink">
    <!-- Generator: Sketch 64 (93537) - https://sketch.com -->
    <title>trustpilot</title>
    <desc>Created with Sketch.</desc>
    <defs>
        <polygon id="path-1" points="0 0 160 0 160 80 0 80"></polygon>
    </defs>
    <g id="Page-1" stroke="none" stroke-width="1" fill="none" fill-rule="evenodd">
        <g id="trustpilot" transform="translate(-6.000000, -6.000000)">
            <mask id="mask-2" fill="white">
                <use xlink:href="#path-1"></use>
            </mask>
            <g id="Path"></g>
            <g id="Group" mask="url(#mask-2)">
                <g transform="translate(6.000000, 6.000000)">
                    <path d="M39.277,12.4644 L54.3351,12.4644 L54.3351,15.1625 L48.4061,15.1625 L48.4061,30.3722 L45.1563,30.3722 L45.1563,15.1625 L39.2522,15.1625 L39.277,12.4644 Z M53.6901,17.4069 L56.4685,17.4069 L56.4685,19.914 L56.5181,19.914 C56.6174,19.5558 56.791,19.2216 57.0391,18.8873 C57.2872,18.553 57.5848,18.2426 57.957,17.98 C58.3043,17.6934 58.7012,17.4785 59.1477,17.3114 C59.5694,17.1443 60.016,17.0488 60.4625,17.0488 C60.8098,17.0488 61.0579,17.0726 61.1819,17.0726 C61.3059,17.0965 61.4548,17.1204 61.5788,17.1204 L61.5788,19.8663 C61.3804,19.8185 61.1571,19.7946 60.9338,19.7707 C60.7106,19.7469 60.5121,19.723 60.2888,19.723 C59.7927,19.723 59.3214,19.8185 58.8748,20.0095 C58.4283,20.2005 58.0562,20.4871 57.7089,20.8452 C57.3864,21.2272 57.1135,21.6809 56.915,22.2301 C56.7166,22.7793 56.6174,23.4239 56.6174,24.1403 L56.6174,30.3005 L53.6405,30.3005 L53.6901,17.4069 Z M75.2229,30.3722 L72.2956,30.3722 L72.2956,28.5575 L72.246,28.5575 C71.8739,29.2261 71.3281,29.7275 70.6087,30.1334 C69.8893,30.5393 69.1451,30.7303 68.4009,30.7303 C66.6395,30.7303 65.3495,30.3244 64.5557,29.4648 C63.7619,28.6291 63.365,27.3398 63.365,25.6445 L63.365,17.4069 L66.3418,17.4069 L66.3418,25.358 C66.3418,26.5041 66.5651,27.3159 67.0364,27.7696 C67.483,28.2471 68.128,28.4859 68.9466,28.4859 C69.5668,28.4859 70.0878,28.3904 70.5095,28.1994 C70.9312,28.0083 71.2785,27.7696 71.5266,27.4592 C71.7995,27.1488 71.9731,26.7667 72.0972,26.3369 C72.2212,25.9072 72.2708,25.4296 72.2708,24.9282 L72.2708,17.4069 L75.2477,17.4069 L75.2477,30.3722 L75.2229,30.3722 Z M80.2836,26.2176 C80.3828,27.0533 80.7053,27.6263 81.2759,27.9845 C81.8464,28.3187 82.5411,28.4859 83.3349,28.4859 C83.6078,28.4859 83.9303,28.462 84.2776,28.4143 C84.6249,28.3665 84.9722,28.2949 85.2699,28.1755 C85.5924,28.0561 85.8404,27.889 86.0389,27.6502 C86.2374,27.4114 86.3366,27.1249 86.3118,26.7667 C86.287,26.4086 86.1629,26.0982 85.8901,25.8594 C85.6172,25.6206 85.2947,25.4535 84.8978,25.2864 C84.5008,25.1431 84.0295,25.0237 83.5085,24.9282 C82.9876,24.8327 82.4666,24.7133 81.9209,24.5939 C81.3751,24.4745 80.8293,24.3313 80.3084,24.1641 C79.7874,23.997 79.3409,23.7821 78.9192,23.4717 C78.5223,23.1852 78.175,22.827 77.9517,22.3734 C77.7036,21.9197 77.5796,21.3944 77.5796,20.7258 C77.5796,20.0095 77.7532,19.4365 78.1253,18.9589 C78.4726,18.4814 78.944,18.0994 79.4897,17.8128 C80.0355,17.5263 80.6557,17.3114 81.3255,17.192 C81.9953,17.0726 82.6403,17.0249 83.2357,17.0249 C83.9303,17.0249 84.6001,17.0965 85.2202,17.2398 C85.8404,17.383 86.4358,17.5979 86.932,17.9322 C87.4529,18.2426 87.8746,18.6724 88.1971,19.1738 C88.5444,19.6752 88.7429,20.296 88.8421,21.0124 L85.7412,21.0124 C85.5924,20.3199 85.2699,19.8663 84.7737,19.6275 C84.2528,19.3887 83.6822,19.2693 83.0124,19.2693 C82.8139,19.2693 82.5411,19.2932 82.2682,19.3171 C81.9705,19.3648 81.7224,19.4126 81.4495,19.5081 C81.2015,19.6036 80.9782,19.7469 80.8045,19.914 C80.6309,20.0811 80.5317,20.3199 80.5317,20.6064 C80.5317,20.9646 80.6557,21.2272 80.9038,21.4421 C81.1518,21.657 81.4743,21.8242 81.8961,21.9913 C82.293,22.1346 82.7643,22.254 83.2853,22.3495 C83.8062,22.445 84.352,22.5644 84.8978,22.6838 C85.4435,22.8031 85.9645,22.9464 86.4854,23.1135 C87.0064,23.2807 87.4777,23.4956 87.8746,23.806 C88.2716,24.0925 88.6189,24.4507 88.8669,24.8804 C89.115,25.3102 89.239,25.8594 89.239,26.4802 C89.239,27.2443 89.0654,27.889 88.6933,28.4381 C88.3212,28.9634 87.8498,29.4171 87.2793,29.7514 C86.7087,30.0857 86.0389,30.3244 85.3443,30.4916 C84.6249,30.6348 83.9303,30.7303 83.2357,30.7303 C82.3922,30.7303 81.5984,30.6348 80.879,30.4438 C80.1595,30.2528 79.5146,29.9663 78.9936,29.6081 C78.4726,29.2261 78.0509,28.7724 77.7532,28.1994 C77.4555,27.6502 77.2819,26.9816 77.2571,26.1937 L80.2588,26.1937 L80.2588,26.2176 L80.2836,26.2176 Z M90.0825,17.4069 L92.34,17.4069 L92.34,13.4911 L95.317,13.4911 L95.317,17.383 L97.996,17.383 L97.996,19.5081 L95.317,19.5081 L95.317,26.4325 C95.317,26.7429 95.342,26.9816 95.366,27.2204 C95.391,27.4353 95.466,27.6263 95.54,27.7696 C95.639,27.9128 95.788,28.0322 95.962,28.1039 C96.16,28.1755 96.408,28.2232 96.756,28.2232 C96.954,28.2232 97.177,28.2232 97.376,28.1994 C97.574,28.1755 97.798,28.1516 97.996,28.1039 L97.996,30.3244 C97.674,30.3722 97.351,30.3961 97.029,30.4199 C96.706,30.4677 96.408,30.4677 96.061,30.4677 C95.267,30.4677 94.647,30.3961 94.176,30.2528 C93.7044,30.1095 93.3323,29.8946 93.0594,29.632 C92.7865,29.3455 92.6128,29.0112 92.5136,28.6053 C92.4144,28.1994 92.3648,27.6979 92.34,27.1726 L92.34,19.532 L90.0825,19.532 L90.0825,17.3592 L90.0825,17.4069 Z M100.08,17.4069 L102.883,17.4069 L102.883,19.1738 L102.933,19.1738 C103.354,18.4098 103.925,17.8845 104.669,17.5502 C105.413,17.2159 106.207,17.0488 107.1,17.0488 C108.167,17.0488 109.085,17.2159 109.879,17.5979 C110.673,17.9561 111.318,18.4336 111.839,19.0783 C112.36,19.6991 112.756,20.4393 113.005,21.275 C113.253,22.1107 113.401,23.018 113.401,23.9492 C113.401,24.8327 113.277,25.6684 113.054,26.4802 C112.806,27.292 112.459,28.0322 111.987,28.653 C111.516,29.2738 110.921,29.7752 110.176,30.1573 C109.432,30.5393 108.589,30.7303 107.596,30.7303 C107.175,30.7303 106.728,30.6826 106.307,30.611 C105.885,30.5393 105.463,30.4199 105.066,30.2528 C104.669,30.0857 104.297,29.8708 103.975,29.6081 C103.627,29.3455 103.354,29.0351 103.131,28.7008 L103.082,28.7008 L103.082,35.1715 L100.105,35.1715 L100.105,17.4069 L100.08,17.4069 Z M110.474,23.9015 C110.474,23.3284 110.4,22.7554 110.226,22.2062 C110.077,21.657 109.829,21.1795 109.507,20.7497 C109.184,20.3199 108.787,19.9856 108.341,19.723 C107.869,19.4603 107.324,19.341 106.728,19.341 C105.488,19.341 104.545,19.7469 103.9,20.5826 C103.28,21.4183 102.958,22.5405 102.958,23.9254 C102.958,24.5939 103.032,25.1908 103.206,25.74 C103.379,26.2892 103.603,26.7667 103.95,27.1726 C104.272,27.5786 104.669,27.889 105.141,28.1277 C105.612,28.3665 106.133,28.4859 106.753,28.4859 C107.448,28.4859 107.993,28.3426 108.465,28.08 C108.936,27.8173 109.308,27.4592 109.631,27.0533 C109.928,26.6235 110.152,26.1459 110.276,25.5968 C110.4,25.0237 110.474,24.4745 110.474,23.9015 L110.474,23.9015 Z M115.709,12.4644 L118.685,12.4644 L118.685,15.1625 L115.709,15.1625 L115.709,12.4644 Z M115.709,17.4069 L118.685,17.4069 L118.685,30.3722 L115.709,30.3722 L115.709,17.4069 Z M121.34,12.4644 L124.317,12.4644 L124.317,30.3722 L121.34,30.3722 L121.34,12.4644 Z M133.396,30.7303 C132.329,30.7303 131.362,30.5632 130.519,30.205 C129.675,29.8469 128.98,29.3932 128.385,28.7963 C127.815,28.1994 127.368,27.4592 127.07,26.6235 C126.773,25.7878 126.599,24.8566 126.599,23.8776 C126.599,22.8986 126.748,21.9913 127.07,21.1556 C127.368,20.3199 127.815,19.6036 128.385,18.9828 C128.956,18.3859 129.675,17.9083 130.519,17.5741 C131.362,17.2398 132.329,17.0488 133.396,17.0488 C134.463,17.0488 135.43,17.2159 136.274,17.5741 C137.117,17.9083 137.812,18.3859 138.407,18.9828 C138.978,19.5797 139.424,20.3199 139.722,21.1556 C140.02,21.9913 140.193,22.8987 140.193,23.8776 C140.193,24.8804 140.045,25.7878 139.722,26.6235 C139.4,27.4592 138.978,28.1755 138.407,28.7963 C137.837,29.3932 137.117,29.8708 136.274,30.205 C135.43,30.5393 134.488,30.7303 133.396,30.7303 Z M133.396,28.462 C134.041,28.462 134.637,28.3188 135.108,28.0561 C135.604,27.7935 135.976,27.4353 136.299,27.0055 C136.621,26.5757 136.844,26.0743 136.993,25.549 C137.142,24.9998 137.216,24.4507 137.216,23.8776 C137.216,23.3284 137.142,22.7793 136.993,22.2301 C136.844,21.6809 136.621,21.2034 136.299,20.7736 C135.976,20.3438 135.579,20.0095 135.108,19.7469 C134.612,19.4842 134.041,19.341 133.396,19.341 C132.751,19.341 132.156,19.4842 131.684,19.7469 C131.188,20.0095 130.816,20.3677 130.494,20.7736 C130.171,21.2034 129.948,21.6809 129.799,22.2301 C129.65,22.7793 129.576,23.3284 129.576,23.8776 C129.576,24.4507 129.65,24.9998 129.799,25.549 C129.948,26.0982 130.171,26.5757 130.494,27.0055 C130.816,27.4353 131.213,27.7935 131.684,28.0561 C132.181,28.3426 132.751,28.462 133.396,28.462 Z M141.086,17.4069 L143.344,17.4069 L143.344,13.4911 L146.321,13.4911 L146.321,17.383 L149,17.383 L149,19.5081 L146.321,19.5081 L146.321,26.4325 C146.321,26.7429 146.346,26.9816 146.37,27.2204 C146.395,27.4353 146.47,27.6263 146.544,27.7696 C146.643,27.9128 146.792,28.0322 146.966,28.1039 C147.164,28.1755 147.412,28.2232 147.76,28.2232 C147.958,28.2232 148.181,28.2232 148.38,28.1994 C148.578,28.1755 148.802,28.1516 149,28.1039 L149,30.3244 C148.678,30.3722 148.355,30.3961 148.033,30.4199 C147.71,30.4677 147.412,30.4677 147.065,30.4677 C146.271,30.4677 145.651,30.3961 145.18,30.2528 C144.708,30.1095 144.336,29.8946 144.063,29.632 C143.79,29.3455 143.617,29.0112 143.518,28.6053 C143.418,28.1994 143.369,27.6979 143.344,27.1726 L143.344,19.532 L141.086,19.532 L141.086,17.3592 L141.086,17.4069 Z" id="Shape" fill="#000000" fill-rule="nonzero"></path>
                    <polygon id="Path" fill="#00B67A" fill-rule="nonzero" points="35.804 12.4638 22.1848 12.4638 17.9923 -1.77635684e-15 13.7751 12.4638 0.15582 12.44 11.1703 20.1523 6.953 32.6161 17.9675 24.9038 28.982 32.6161 24.7895 20.1523"></polygon>
                    <polygon id="Path" fill="#005128" fill-rule="nonzero" points="25.7323 22.9698 24.7896 20.1523 17.9924 24.9039"></polygon>
                    <rect id="Rectangle" fill="#FFFFFF" fill-rule="nonzero" x="17" y="45" width="114" height="17" rx="8.5"></rect>
                    <g id="Group" stroke-width="1" fill="none" fill-rule="evenodd" transform="translate(40.000000, 47.000000)">
                        <path d="M6.2622,0.7318 C6.33709103,0.5014 6.6629,0.5014 6.7378,0.7318 L7.9032,4.3186 C7.9367,4.4216 8.0327,4.4914 8.141,4.4914 L11.9124,4.4914 C12.1546,4.4914 12.2553,4.8013 12.0594,4.9436 L9.0082,7.1605 C8.9206,7.2241 8.8839,7.337 8.9174,7.44 L10.0828,11.0268 C10.1577,11.2572 9.8941,11.4487 9.6981,11.3064 L6.6469,9.0895 C6.5593,9.0259 6.4407,9.0259 6.3531,9.0895 L3.3019,11.3064 C3.1059,11.4487 2.8423,11.2572 2.9172,11.0268 L4.0826,7.44 C4.1161,7.337 4.0794,7.2241 3.9918,7.1605 L0.9406,4.9436 C0.7447,4.8013 0.8454,4.4914 1.0876,4.4914 L4.859,4.4914 C4.9673,4.4914 5.0633,4.4216 5.0968,4.3186 L6.2622,0.7318 Z" id="Path" fill="#FFB342" fill-rule="nonzero"></path>
                        <path d="M20.2622,0.7318 C20.337091,0.5014 20.6629,0.5014 20.7378,0.7318 L21.9032,4.3186 C21.9367,4.4216 22.0327,4.4914 22.141,4.4914 L25.9124,4.4914 C26.1546,4.4914 26.2553,4.8013 26.0594,4.9436 L23.0082,7.1605 C22.9206,7.2241 22.8839,7.337 22.9174,7.44 L24.0828,11.0268 C24.1577,11.2572 23.8941,11.4487 23.6981,11.3064 L20.6469,9.0895 C20.5593,9.0259 20.4407,9.0259 20.3531,9.0895 L17.3019,11.3064 C17.1059,11.4487 16.8423,11.2572 16.9172,11.0268 L18.0826,7.44 C18.1161,7.337 18.0794,7.2241 17.9918,7.1605 L14.9406,4.9436 C14.7447,4.8013 14.8454,4.4914 15.0876,4.4914 L18.859,4.4914 C18.9673,4.4914 19.0633,4.4216 19.0968,4.3186 L20.2622,0.7318 Z" id="Path" fill="#FFB342" fill-rule="nonzero"></path>
                        <path d="M34.2622,0.7318 C34.337091,0.5014 34.6629,0.5014 34.7378,0.7318 L35.9032,4.3186 C35.9367,4.4216 36.0327,4.4914 36.141,4.4914 L39.9124,4.4914 C40.1546,4.4914 40.2553,4.8013 40.0594,4.9436 L37.0082,7.1605 C36.9206,7.2241 36.8839,7.337 36.9174,7.44 L38.0828,11.0268 C38.1577,11.2572 37.8941,11.4487 37.6981,11.3064 L34.6469,9.0895 C34.5593,9.0259 34.4407,9.0259 34.3531,9.0895 L31.3019,11.3064 C31.1059,11.4487 30.8423,11.2572 30.9172,11.0268 L32.0826,7.44 C32.1161,7.337 32.0794,7.2241 31.9918,7.1605 L28.9406,4.9436 C28.7447,4.8013 28.8454,4.4914 29.0876,4.4914 L32.859,4.4914 C32.9673,4.4914 33.0633,4.4216 33.0968,4.3186 L34.2622,0.7318 Z" id="Path" fill="#FFB342" fill-rule="nonzero"></path>
                        <path d="M48.2622,0.7318 C48.337091,0.5014 48.6629,0.5014 48.7378,0.7318 L49.9032,4.3186 C49.9367,4.4216 50.0327,4.4914 50.141,4.4914 L53.9124,4.4914 C54.1546,4.4914 54.2553,4.8013 54.0594,4.9436 L51.0082,7.1605 C50.9206,7.2241 50.8839,7.337 50.9174,7.44 L52.0828,11.0268 C52.1577,11.2572 51.8941,11.4487 51.6981,11.3064 L48.6469,9.0895 C48.5593,9.0259 48.4407,9.0259 48.3531,9.0895 L45.3019,11.3064 C45.1059,11.4487 44.8423,11.2572 44.9172,11.0268 L46.0826,7.44 C46.1161,7.337 46.0794,7.2241 45.9918,7.1605 L42.9406,4.9436 C42.7447,4.8013 42.8454,4.4914 43.0876,4.4914 L46.859,4.4914 C46.9673,4.4914 47.0633,4.4216 47.0968,4.3186 L48.2622,0.7318 Z" id="Path" fill="#FFB342" fill-rule="nonzero"></path>
                        <path d="M62.2622,0.7318 C62.337091,0.5014 62.6629,0.5014 62.7378,0.7318 L63.9032,4.3186 C63.9367,4.4216 64.0327,4.4914 64.141,4.4914 L67.9124,4.4914 C68.1546,4.4914 68.2553,4.8013 68.0594,4.9436 L65.0082,7.1605 C64.9206,7.2241 64.8839,7.337 64.9174,7.44 L66.0828,11.0268 C66.1577,11.2572 65.8941,11.4487 65.6981,11.3064 L62.6469,9.0895 C62.5593,9.0259 62.4407,9.0259 62.3531,9.0895 L59.3019,11.3064 C59.1059,11.4487 58.8423,11.2572 58.9172,11.0268 L60.0826,7.44 C60.1161,7.337 60.0794,7.2241 59.9918,7.1605 L56.9406,4.9436 C56.7447,4.8013 56.8454,4.4914 57.0876,4.4914 L60.859,4.4914 C60.9673,4.4914 61.0633,4.4216 61.0968,4.3186 L62.2622,0.7318 Z" id="Path" fill="#FFB342" fill-rule="nonzero"></path>
                    </g>
                </g>
            </g>
        </g>
    </g>
</svg>